<?xml version="1.0" encoding="iso-8859-1"?>
<!-- Generator: Adobe Illustrator 19.0.0, SVG Export Plug-In . SVG Version: 6.00 Build 0)  -->
<svg version="1.1" id="Capa_1" xmlns="http://www.w3.org/2000/svg" xmlns:xlink="http://www.w3.org/1999/xlink" x="0px" y="0px"
	 viewBox="0 0 512 512" style="enable-background:new 0 0 512 512;" xml:space="preserve">
<polygon style="fill:#ADB3BA;" points="294.4,511.477 307.2,501.877 307.2,348.277 168.533,348.277 154.667,511.477 "/>
<polygon style="fill:#415A6B;" points="254.933,511.477 237.867,395.211 203.733,395.211 186.667,511.477 "/>
<g>
	<path style="fill:#4ABAA5;" d="M194.133,511.477c-22.4-88.533-51.2-183.467-51.2-183.467l-23.467-2.133l-86.4,32
		c0,0-16,1.067-20.267,35.2c-3.2,28.8-9.6,91.733-12.8,118.4H194.133z"/>
	<path style="fill:#4ABAA5;" d="M440.533,511.477c-3.2-26.667-9.6-89.6-11.733-118.4c-3.2-34.133-20.267-35.2-20.267-35.2l-86.4-32
		l-23.467,2.133c0,0-29.867,94.933-51.2,183.467H440.533z"/>
</g>
<polygon style="fill:#344A5E;" points="237.867,395.211 252.8,380.277 220.8,348.277 187.733,380.277 203.733,395.211 "/>
<path style="fill:#F3F3F3;" d="M277.333,285.344c0,0,0,16-9.6,24.533c-9.6,8.533-46.933,38.4-46.933,38.4l34.133,59.733
	l43.733-90.667C298.667,316.277,290.133,290.677,277.333,285.344z"/>
<path style="fill:#66C6B9;" d="M252.8,413.344c-4.267,21.333-14.933,56.533-21.333,98.133h33.067c2.133-6.4,4.267-11.733,6.4-16
	c12.8-33.067,59.733-122.667,59.733-122.667l-24.533-18.133H329.6c0,0-1.067-27.733-14.933-37.333
	c-13.867-9.6-17.067-12.8-22.4-21.333c-5.333-7.467-10.667-8.533-10.667-8.533s8.533,18.133,6.4,32
	C283.733,332.277,261.333,372.811,252.8,413.344z"/>
<path style="fill:#F3F3F3;" d="M163.2,285.344c0,0,0,16,9.6,24.533c9.6,8.533,46.933,38.4,46.933,38.4L185.6,408.011l-43.733-90.667
	C141.867,316.277,150.4,290.677,163.2,285.344z"/>
<path style="fill:#66C6B9;" d="M170.667,495.477c2.133,4.267,4.267,9.6,6.4,16h33.067c-7.467-41.6-17.067-76.8-21.333-98.133
	c-8.533-40.533-30.933-81.067-34.133-94.933c-2.133-13.867,6.4-32,6.4-32s-6.4,1.067-10.667,8.533
	c-5.333,8.533-9.6,11.733-22.4,21.333c-13.867,9.6-14.933,37.333-14.933,37.333h23.467l-25.6,19.2
	C110.933,372.811,156.8,462.411,170.667,495.477z"/>
<path style="fill:#F7B64C;" d="M163.2,251.211v33.067c0,0,0,16,9.6,24.533c9.6,8.533,46.933,38.4,46.933,38.4
	s37.333-29.867,46.933-38.4c9.6-8.533,9.6-24.533,9.6-24.533v-33.067L163.2,251.211L163.2,251.211z"/>
<g>
	<path style="fill:#FFD15C;" d="M294.4,219.211c0,0-13.867,98.133-73.6,98.133s-68.267-78.933-68.267-86.4s-9.6-60.8,6.4-98.133
		s80-42.667,107.733-28.8s33.067,17.067,34.133,36.267C301.867,159.477,299.733,206.411,294.4,219.211z"/>
	<path style="fill:#FFD15C;" d="M315.733,211.744c-2.133,14.933-9.6,27.733-17.067,27.733s-12.8-12.8-10.667-27.733
		c2.133-14.933,9.6-27.733,17.067-27.733C312.533,184.011,316.8,195.744,315.733,211.744z"/>
	<path style="fill:#FFD15C;" d="M126.933,211.744c2.133,14.933,9.6,27.733,17.067,27.733s12.8-12.8,10.667-27.733
		s-9.6-27.733-17.067-27.733S125.867,195.744,126.933,211.744z"/>
</g>
<path style="fill:#415A6B;" d="M307.2,194.677c-9.6,16-11.733,24.533-11.733,24.533s4.267-40.533-6.4-56.533
	c-5.333-8.533-4.267-16-3.2-23.467c0-9.6-8.533-16-17.067-14.933c-27.733,5.333-55.467,5.333-82.133,0
	c-9.6-2.133-18.133,5.333-17.067,14.933c0,7.467-4.267,16-9.6,23.467c-8.533,12.8-7.467,42.667-7.467,52.267
	c-1.067-5.333-5.333-10.667-9.6-14.933c-9.6-10.667-13.867-24.533-11.733-38.4l0,0c2.133-14.933,9.6-51.2,24.533-64
	c11.733-13.867,46.933-41.6,89.6-29.867c42.667,12.8,67.2,65.067,70.4,81.067S315.733,178.677,307.2,194.677z"/>
<path style="fill:#F3705A;" d="M512,89.077c0,49.067-43.733,89.6-99.2,89.6c-6.4,0-13.867-1.067-20.267-2.133l-54.4,34.133v-61.867
	c-14.933-16-24.533-36.267-24.533-58.667c0-49.067,43.733-89.6,99.2-89.6C468.267-0.523,512,38.944,512,89.077z"/>
<path style="fill:#FFFFFF;" d="M403.2,41.077L403.2,41.077c0-5.333,4.267-10.667,10.667-10.667l0,0
	c5.333,0,10.667,4.267,10.667,10.667l0,0c0,5.333-4.267,10.667-10.667,10.667l0,0C407.467,51.744,403.2,46.411,403.2,41.077z
	 M403.2,146.677V62.411h20.267v83.2H403.2V146.677z"/>
<g>
</g>
<g>
</g>
<g>
</g>
<g>
</g>
<g>
</g>
<g>
</g>
<g>
</g>
<g>
</g>
<g>
</g>
<g>
</g>
<g>
</g>
<g>
</g>
<g>
</g>
<g>
</g>
<g>
</g>
</svg>
