<svg id="Capa_1" enable-background="new 0 0 512.016 512.016" height="512" viewBox="0 0 512.016 512.016" width="512" xmlns="http://www.w3.org/2000/svg"><g><path d="m481.277 496.174-93.33 7.891-94.01 7.949-2.53-29.89 78.73-6.66-13.6-160.84 15.29-1.289 14.6-1.24 13.6 160.839 78.72-6.65z" fill="#fff3f3"/><path d="m481.277 496.174-93.33 7.891-16.12-190.73 14.6-1.24 13.6 160.839 78.72-6.65z" fill="#eee1dc"/><path d="m451.457 95.154c-13.09.71-58.57 36.75-94.61 41.07-45.61 5.46-83.3-20.61-100.84-20.1l-14-55.017 14-45.953 89.96-7.6 89.28-7.55z" fill="#fff3f3"/><path d="m435.247.004 16.21 95.15c-13.09.71-58.57 36.75-94.61 41.07l-10.88-128.67z" fill="#eee1dc"/><path d="m373.117 328.654-.34.03c-59.73 5.05-111.42-39.5-116.37-98.07-.26-3.05-.39-6.13-.39-9.24l-14.006-61.535 13.996-43.715c31.39-.91 32.16-21.08 65.01-21.09 16.56 0 24.96 5.13 33.22 10.34 8.53 5.36 16.93 10.8 33.99 10.8 32.22 0 33.58-19.41 63.23-21.02l18.41 108.14c10.57 62.051-34.09 119.87-96.75 125.36z" fill="#febf01"/><path d="m469.867 203.294c10.57 62.05-34.09 119.87-96.75 125.36l-18.88-223.28c8.53 5.36 16.93 10.8 33.99 10.8 32.22 0 33.58-19.41 63.23-21.02z" fill="#f48e06"/><path d="m358.355 260.444h30v30h-30z" fill="#ffda2d"/><path d="m388.355 260.444v30h-18.47l-2.53-30z" fill="#febf01"/><path d="m405.643 208.682h30v30h-30z" fill="#febf01"/><path d="m220.608 482.123-2.527 29.893-187.342-15.84 2.527-29.893 78.72 6.656 13.599-160.846 29.894 2.527-13.6 160.846z" fill="#fff3f3"/><path d="m220.608 482.123-2.527 29.893-94.015-7.949 16.127-190.739 15.286 1.292-13.6 160.846z" fill="#eee1dc"/><path d="m256.009 116.124c-17.539-.51-55.229 25.558-100.842 20.096-36.035-4.311-81.52-40.352-94.606-41.067l16.205-95.153 179.24 15.155z" fill="#fff3f3"/><path d="m256.009 116.124c-17.539-.51-55.229 25.558-100.842 20.096l10.88-128.671 89.959 7.606z" fill="#eee1dc"/><path d="m255.612 230.618c-4.952 58.571-56.639 103.115-116.376 98.064l-.339-.029c-62.66-5.489-107.318-63.307-96.753-125.357l18.417-108.143c29.65 1.614 31.01 21.017 63.224 21.021 17.061-.003 25.459-5.444 33.991-10.805 8.268-5.202 16.66-10.333 33.219-10.338 32.856.008 33.619 20.184 65.014 21.092l-.008 105.253c-.001 3.113-.131 6.193-.389 9.242z" fill="#febf01"/><path d="m255.612 230.618c-4.952 58.571-56.639 103.115-116.376 98.064l-.339-.029 18.879-223.283c8.268-5.202 16.66-10.333 33.219-10.338 32.856.008 33.619 20.184 65.014 21.092l-.008 105.253c-.001 3.112-.131 6.192-.389 9.241z" fill="#f48e06"/><path d="m153.659 290.441-11.531-.002-18.466.005-.002-29.997h21.004l8.993-.003z" fill="#ffda2d"/><path d="m153.659 290.441-11.531-.002 2.536-29.992 8.993-.003z" fill="#febf01"/><path d="m171.353 208.682h30v30h-30z" fill="#febf01"/><path d="m228.794 177.674-.09-.71c1.33.42 1.44.67.09.71z"/></g></svg>