<svg id="Capa_1" enable-background="new 0 0 512.005 512.005" height="512" viewBox="0 0 512.005 512.005" width="512" xmlns="http://www.w3.org/2000/svg"><g><g><path d="m491.404 464.918-52.563-20.786c-23.291 14.341-50.039 21.87-77.842 21.87-82.705 0-150-67.295-150-150 0-7.669-.372-15.328 6.914-20.244 31.025-20.859 50.771-55.547 52.822-92.783.264-4.717 2.725-9.038 6.65-11.66 24.844-16.553 53.73-25.313 83.613-25.313 82.705 0 151 67.295 151 150 0 27.803-8.529 54.551-22.855 77.856l21.771 51.533c2.256 5.581.938 11.968-3.311 16.216-4.27 4.273-10.66 5.545-16.199 3.311z" fill="#ffe666"/></g><path d="m438.842 444.132 52.563 20.786c5.539 2.232 11.929.961 16.201-3.311 4.248-4.248 5.566-10.635 3.311-16.216l-21.771-51.533c14.325-23.305 22.854-50.053 22.854-77.856 0-82.705-68.295-150-151-150v300c27.803 0 54.551-7.529 77.842-21.87z" fill="#fabe2c"/><g><path d="m151 46.002c-82.8 0-151 67.2-151 150 0 27.9 8.5 54.6 22.899 77.999l-21.688 51.301c-2.399 5.7-1.199 11.999 3.301 16.199 4.199 4.501 10.499 5.7 16.199 3.3l52.588-20.7c23.101 14.401 50.402 21.301 77.701 21.301 29.399 0 58.801-8.101 83.699-24.6 40.201-27.3 66.301-73.799 66.301-124.8 0-82.8-67.2-150-150-150z" fill="#9ef"/></g><path d="m301 196.002c0 51-26.1 97.5-66.301 124.799-24.899 16.5-54.3 24.6-83.699 24.6v-299.399c82.8 0 150 67.2 150 150z" fill="#80bfff"/><g id="Chat_3_"><g><g><g><path d="m91 226.002c-8.291 0-15-6.709-15-15v-30c0-8.291 6.709-15 15-15s15 6.709 15 15v30c0 8.291-6.709 15-15 15z" fill="#47568c"/></g></g></g><g><g><path d="m151 226.002c-8.291 0-15-6.709-15-15v-30c0-8.291 6.709-15 15-15s15 6.709 15 15v30c0 8.291-6.709 15-15 15z" fill="#47568c"/></g></g><g><path d="m211 226.002c-8.291 0-15-6.709-15-15v-30c0-8.291 6.709-15 15-15s15 6.709 15 15v30c0 8.291-6.709 15-15 15z" fill="#29376d"/></g><g><g><path d="m301 346.002c-8.291 0-15-6.709-15-15v-30c0-8.291 6.709-15 15-15s15 6.709 15 15v30c0 8.291-6.709 15-15 15z" fill="#704c55"/></g></g><g><path d="m361 346.002c-8.291 0-15-6.709-15-15v-30c0-8.291 6.709-15 15-15s15 6.709 15 15v30c0 8.291-6.709 15-15 15z" fill="#704c55"/></g><g><path d="m421 346.002c-8.291 0-15-6.709-15-15v-30c0-8.291 6.709-15 15-15s15 6.709 15 15v30c0 8.291-6.709 15-15 15z" fill="#5b362a"/></g></g><path d="m166 211.002v-30c0-8.291-6.709-15-15-15v60c8.291 0 15-6.709 15-15z" fill="#29376d"/><path d="m376 331.002v-30c0-8.291-6.709-15-15-15v60c8.291 0 15-6.709 15-15z" fill="#5b362a"/></g></svg>