<svg height="512" viewBox="0 0 52 59" width="512" xmlns="http://www.w3.org/2000/svg"><g id="Page-1" fill="none" fill-rule="evenodd"><g id="045---Dizzyness" fill-rule="nonzero"><path id="Shape" d="m39.064 15.992c-.394 0-.8043333-.008-1.231-.024-.551654-.0206056-.9822581-.4843331-.962-1.036.0033111-.267336.1161444-.5216099.312149-.7034386.1960046-.1818288.4580184-.2752917.724851-.2585614 4.728.176 5.991-.721 6.082-1.083s-.57-1.8-4.692-4.005c-3.941264-1.99923562-8.0883271-3.56377282-12.368-4.666-.325-.09-.642-.171-.956-.25l-.222-.057c-8.9-2.261-15.472-2.295-17.367-1.164-.123.074-.336.221-.375.376-.093.37.569 1.8 4.69 4 2.4350964 1.26368208 4.9659183 2.33365567 7.569 3.2.5232898.1775596.8035595.7457102.626 1.269-.1775596.5232898-.7457102.8035595-1.269.626-2.7047143-.9010092-5.3344701-2.0130967-7.865-3.326-4.253-2.266-6.167-4.368-5.69-6.249.19136765-.68908621.65690974-1.26956804 1.288-1.606 2.749-1.642 10.163-1.274 18.887.944l.221.055c.326.083.658.167.989.259 4.423385 1.14051795 8.7098431 2.75799869 12.784 4.824 4.251 2.277 6.164 4.382 5.69 6.258-.43 1.738-2.743 2.617-6.866 2.617z" fill="#4fb96f"/><path id="Shape" d="m33.964 43.067c1.731 6.707 9.138 7.127 12.894 6.884.4404865-.0578024.8248474-.3274075 1.0291689-.7218974.2043214-.3944899.2027645-.8639765-.0041689-1.2571026-2.666-5.745 3.282-15.616-2.666-28.088-5.191-10.884-19.191-10.884-19.191-10.884s-14 0-19.191 10.884c-5.949 12.472 0 22.343-2.666 28.088-.20743385.3930665-.20924029.8627977-.00483576 1.257448s.5891091.6641927 1.02983576.721552c3.755.243 11.163-.177 12.893-6.884z" fill="#e47e25"/><path id="Shape" d="m45.24 58.99-.02.01h-38.41c.4180314-.6408957.90054424-1.2373352 1.44-1.78 2.0614595-2.0659504 4.8614827-3.2248289 7.78-3.22h20c3.7169618-.0037463 7.183183 1.8742606 9.21 4.99z" fill="#ff5364"/><path id="Shape" d="m33.03 54c.000134 1.8565667-.7372761 3.6371421-2.05 4.95-.0174207.0195386-.0376402.0363883-.06.05h-9.78c-.0223598-.0136117-.0425793-.0304614-.06-.05-1.3166613-1.3102237-2.0547808-3.0925123-2.05-4.95.5556115-.3956234 1.0595272-.8592258 1.5-1.38.9167282-.9885153 1.4488914-2.2728026 1.5-3.62.0817096-1.4450181-.2925756-2.8791949-1.07-4.1h10.14c-.7774244 1.2208051-1.1517096 2.6549819-1.07 4.1 0 3 3 5 3 5z" fill="#f8c694"/><path id="Shape" d="m38.026 15.56v12.545c.0072306.4827784.3541892.8933531.829.981 2.0052879.4226666 3.3667589 2.2925302 3.1532557 4.3307262-.2135032 2.0381961-1.9329089 3.5853346-3.9822557 3.5832738 0 0-3 9-12 9s-12-9-12-9c-2.0495396.0025761-3.7694309-1.5444138-3.983209-3.5827754-.21377813-2.0383616 1.1477313-3.9085209 3.153209-4.3312246.4752076-.0872256.8226767-.497909.83-.981v-12.545z" fill="#fcd6ac"/><path id="Shape" d="m40.026 24.951s-13.974 1.79-13.974-8.951c0 10.741-13.975 8.951-13.975 8.951v-10.342h27.949z" fill="#e47e25"/><path id="Shape" d="m12.967 16c-1.9132922.1248786-3.82819619-.2183557-5.579-1-.64576753-.3358419-1.12362485-.9241132-1.32-1.625-.985-3.927 8.892-8.504 18.486-11.095 9.113-2.46 17.178-2.969 20.069-1.265.6427006.33609953 1.1170987.92384617 1.31 1.623.981 3.926-8.9 8.5-18.487 11.09-4.7121854 1.3605004-9.5765831 2.1238066-14.479 2.272zm26.144-13.98c-4.7520734.13920432-9.4677609.87565253-14.036 2.192-11.661 3.148-17.391 7.388-17.067 8.676.04.159.263.31.391.385 2.006 1.176 9.179 1.058 18.525-1.476 11.66-3.146 17.39-7.382 17.067-8.677-.04-.159-.258-.307-.385-.382-1.4230669-.58222815-2.96137-.82794599-4.495-.718z" fill="#ff5364"/><path id="Shape" d="m49 11c-1.6568542 0-3-1.34314575-3-3s1.3431458-3 3-3 3 1.34314575 3 3-1.3431458 3-3 3zm0-4c-.5522847 0-1 .44771525-1 1s.4477153 1 1 1 1-.44771525 1-1-.4477153-1-1-1z" fill="#4fb96f"/><path id="Shape" d="m3 11c-1.65685425 0-3-1.34314575-3-3s1.34314575-3 3-3 3 1.34314575 3 3-1.34314575 3-3 3zm0-4c-.55228475 0-1 .44771525-1 1s.44771525 1 1 1 1-.44771525 1-1-.44771525-1-1-1z" fill="#4fb96f"/><g fill="#ff5364"><circle id="Oval" cx="2" cy="16" r="1"/><circle id="Oval" cx="50" cy="2" r="1"/></g></g></g></svg>