<svg height="512" viewBox="0 0 512 512" width="512" xmlns="http://www.w3.org/2000/svg"><g id="flat"><path d="m182.846 144.032c-.946-.014-1.9-.032-2.846-.032a124 124 0 0 0 -124 124v28l-24 56 32 16 8 72h64l16 48 136-64-9.845-34.457a74 74 0 0 1 .674-42.882l14.6-45.634c23.932-77.519-30.929-155.844-110.583-156.995z" fill="#f5d3bd"/><path d="m184 296 32 8v8a16 16 0 0 0 16 16l10.51-21.02a52.008 52.008 0 0 0 5.49-23.256v-19.724l-64 8z" fill="#a83b32"/><path d="m104 280a32 32 0 0 0 32 32h32a32 32 0 0 0 32-32z" fill="#c7463b"/><path d="m200 352v48l-58 58-6-18 48-48v-40z" fill="#f5d3bd"/><path d="m162.052 192h57.948a44 44 0 0 1 44 44 44 44 0 0 1 -44 44h-132a0 0 0 0 1 0 0v-13.948a74.052 74.052 0 0 1 74.052-74.052z" fill="#dc4d41"/><path d="m200 352v48l-58 58-6-18 48-48v-40z" fill="#e8c8b3"/><path d="m392 24a88.007 88.007 0 0 0 -71.716 139.008l-8.284 28.992 34.989-4.374a88 88 0 1 0 45.011-163.626z" fill="#0094f6"/><path d="m376 64h56l-24 40h24l-56 64 8-48h-16z" fill="#fbb540"/><g fill="#0094f6"><path d="m224 125.773a8.005 8.005 0 0 1 -7.541-10.673l10.548-29.772a8 8 0 0 1 5.59-5.087l28.351-7.127 10.931-20.831a8 8 0 0 1 14.168 7.434l-12.593 24a8.006 8.006 0 0 1 -5.134 4.042l-27.664 6.954-9.115 25.73a8 8 0 0 1 -7.541 5.33z"/><path d="m373.963 352a7.977 7.977 0 0 1 -5.377-2.078l-20.062-18.222a8.006 8.006 0 0 1 -2.621-5.985l.226-28.524-22.611-15.291a8 8 0 1 1 8.964-13.253l26.163 17.694a8 8 0 0 1 3.517 6.69l-.231 29.233 17.413 15.817a8 8 0 0 1 -5.381 13.919z"/><path d="m385.4 264a8 8 0 0 1 -5.657-2.343l-21.1-21.1-26.553 4.321a8 8 0 0 1 -2.57-15.793l30.6-4.979a8 8 0 0 1 6.942 2.239l20.754 20.755 26.161-6.84a8 8 0 0 1 4.046 15.48l-30.6 8a7.992 7.992 0 0 1 -2.023.26z"/><path d="m178.216 123.4a7.985 7.985 0 0 1 -6.37-3.152l-17.48-22.948a8 8 0 0 1 -1.366-6.891l5.472-20.674-15.113-19.835a8 8 0 0 1 12.727-9.695l17.48 22.944a8 8 0 0 1 1.371 6.895l-5.472 20.674 15.109 19.832a8 8 0 0 1 -6.358 12.847z"/></g><path d="m248 232a8 8 0 0 1 -8 8 8 8 0 0 0 -7.81 6.3 23.964 23.964 0 0 1 7.81 17.7v12.2a43.5 43.5 0 0 1 -16 4.62v-16.82a8.011 8.011 0 0 0 -8-8 8 8 0 0 1 0-16c.46 0 .91.02 1.36.04a24.046 24.046 0 0 1 22.64-16.04 8 8 0 0 1 8 8z" fill="#a83b32"/><path d="m152 272v8h-16v-8a16.021 16.021 0 0 0 -16-16 8 8 0 0 1 0-16 32.036 32.036 0 0 1 32 32z" fill="#a83b32"/><path d="m199.59 242.53a8 8 0 0 1 -10.12 5.06 43.062 43.062 0 0 1 -22.8-17.84 30.138 30.138 0 0 1 -22.67 10.25 8 8 0 0 1 0-16 14.183 14.183 0 0 0 13.47-9.71l2.53-7.59v-14.67c.68-.02 1.36-.03 2.05-.03h13.95v14.7a27.069 27.069 0 0 0 18.53 25.71 8 8 0 0 1 5.06 10.12z" fill="#a83b32"/></g></svg>