<svg id="Capa_1" enable-background="new 0 0 513 513" height="512" viewBox="0 0 513 513" width="512" xmlns="http://www.w3.org/2000/svg" xmlns:xlink="http://www.w3.org/1999/xlink"><linearGradient id="SVGID_1_" gradientUnits="userSpaceOnUse" x1="256" x2="256" y1="477.581" y2="26.249"><stop offset="0" stop-color="#5558ff"/><stop offset="1" stop-color="#00c0ff"/></linearGradient><linearGradient id="SVGID_2_" gradientUnits="userSpaceOnUse" x1="256" x2="256" y1="486.251" y2="77.307"><stop offset="0" stop-color="#addcff"/><stop offset=".5028" stop-color="#eaf6ff"/><stop offset="1" stop-color="#eaf6ff"/></linearGradient><g><g><g><path d="m499.941 36.541c-5.873-1.175-35.397-10.236-74.92-10.291-.125 0-.248 0-.374 0-41.123 0-98.399 9.542-152.647 51.058l-16 29.943-15-29.171c-54.368-42.031-111.86-51.734-152.965-51.83-40.112-.089-70.029 9.1-75.977 10.291-7.011 1.402-12.058 7.559-12.058 14.709v360c0 4.494 2.015 8.751 5.49 11.6 6.087 4.991 12.005 3.255 16.901 2.103 85.757-20.179 161.202-1.976 218.608 52.629l31-.954c57.28-53.865 132.348-71.737 217.607-51.674 4.193.986 10.549 3.106 16.902-2.103 3.476-2.849 5.49-7.106 5.49-11.6v-360c.002-7.151-5.045-13.308-12.057-14.71z" fill="url(#SVGID_1_)"/></g></g><g><g><path d="m75.669 117.169c28.471-1.271 71.272 1.75 113.497 23.363 7.406 3.79 16.43.823 20.187-6.518 3.774-7.374.856-16.412-6.518-20.187-48.068-24.604-96.409-28.06-128.503-26.628-8.276.369-14.686 7.378-14.316 15.654.368 8.275 7.361 14.688 15.653 14.316zm0 60c28.471-1.272 71.272 1.751 113.497 23.363 7.406 3.79 16.43.823 20.187-6.518 3.774-7.374.856-16.412-6.518-20.187-48.068-24.604-96.409-28.06-128.503-26.628-8.276.369-14.686 7.378-14.316 15.654.368 8.275 7.361 14.692 15.653 14.316zm0 60c28.471-1.271 71.272 1.75 113.497 23.363 7.406 3.79 16.43.823 20.187-6.518 3.774-7.374.856-16.412-6.518-20.187-48.068-24.604-96.409-28.061-128.503-26.628-8.276.369-14.686 7.378-14.316 15.654.368 8.275 7.361 14.695 15.653 14.316zm127.165 56.658c-48.068-24.604-96.409-28.061-128.503-26.628-8.016.357-14.331 6.96-14.331 14.984v60c0 8.526 7.115 15.366 15.669 14.985 28.474-1.272 71.273 1.751 113.497 23.364 4.659 2.385 10.212 2.164 14.66-.556 4.457-2.725 7.174-7.573 7.174-12.797v-60c0-5.63-3.153-10.787-8.166-13.352zm234.835-206.629c-32.095-1.433-80.436 2.025-128.503 26.629-5.012 2.566-8.166 7.722-8.166 13.353v60c0 5.224 2.718 10.072 7.174 12.797 4.465 2.731 10.019 2.931 14.66.556 42.224-21.613 85.021-24.635 113.497-23.363 4.089.183 8.078-1.315 11.036-4.145 2.959-2.83 4.633-6.746 4.633-10.841v-60c0-8.025-6.315-14.628-14.331-14.986zm0 120c-32.095-1.432-80.436 2.025-128.503 26.628-7.375 3.775-10.292 12.813-6.518 20.187 3.761 7.348 12.786 10.306 20.187 6.518 42.224-21.613 85.021-24.636 113.497-23.363 8.279.366 15.285-6.041 15.654-14.316.368-8.276-6.041-15.284-14.317-15.654zm0 60c-32.095-1.433-80.436 2.025-128.503 26.628-7.375 3.775-10.292 12.813-6.518 20.187 3.761 7.348 12.786 10.306 20.187 6.518 42.224-21.613 85.021-24.635 113.497-23.363 8.279.373 15.285-6.041 15.654-14.316.368-8.276-6.041-15.284-14.317-15.654zm0 60c-32.095-1.434-80.436 2.025-128.503 26.628-7.375 3.775-10.292 12.813-6.518 20.187 3.761 7.348 12.786 10.306 20.187 6.518 42.224-21.613 85.021-24.636 113.497-23.363 8.279.371 15.285-6.041 15.654-14.316.368-8.276-6.041-15.284-14.317-15.654zm-196.669-249.119v399.502c1.475 1.403 2.942 2.824 4.394 4.275 2.898 2.898 6.749 4.394 10.61 4.394 3.838-.001 7.675-1.466 10.603-4.394 1.78-1.78 3.578-3.522 5.394-5.23v-399.319c-5.369 4.109-10.709 8.526-16 13.283-4.964-4.461-9.969-8.621-15.001-12.511z" fill="url(#SVGID_2_)"/></g></g></g></svg>