<svg id="Capa_1" enable-background="new 0 0 512 512" height="512" viewBox="0 0 512 512" width="512" xmlns="http://www.w3.org/2000/svg"><g><g><path d="m421 512h-330v-196c0-90.981 74.033-165 165-165s165 74.019 165 165z" fill="#fff5f5"/></g><path d="m421 512v-196c0-90.981-74.033-165-165-165v361z" fill="#e1ebf0"/><g><circle cx="256" cy="256" fill="#ffd4c4" r="45"/><path d="m256 301c-41.367 0-75 33.647-75 75v75h150v-75c0-41.353-33.633-75-75-75z" fill="#5ecef4"/><path d="m512 146.605-21.211-21.21-19.394 19.394-19.395-19.394-21.211 21.21 19.395 19.395-19.395 19.395 21.211 21.21 19.395-19.394 19.394 19.394 21.211-21.21-19.395-19.395z" fill="#e50058"/><path d="m326.605 86.605 19.395-19.394 19.395 19.394 21.21-21.21-19.394-19.395 19.394-19.395-21.21-21.21-19.395 19.394-19.395-19.394-21.21 21.21 19.394 19.395-19.394 19.395z" fill="#e50058"/><g fill="#ff415b"><path d="m60 125.395-19.395 19.394-19.394-19.394-21.211 21.21 19.395 19.395-19.395 19.395 21.211 21.21 19.394-19.394 19.395 19.394 21.211-21.21-19.395-19.395 19.395-19.395z"/><path d="m185.395 116.605 21.21-21.21-19.394-19.395 19.394-19.395-21.21-21.21-19.395 19.394-19.395-19.394-21.21 21.21 19.394 19.395-19.394 19.395 21.21 21.21 19.395-19.394z"/><path d="m241 0h30v30h-30z"/></g><path d="m361 121h30v30h-30z" fill="#e50058"/><path d="m61 31h30v30h-30z" fill="#ff415b"/><path d="m451 31h30v30h-30z" fill="#e50058"/></g><path d="m256 0h15v30h-15z" fill="#e50058"/><path d="m301 256c0-24.814-20.186-45-45-45v90c24.814 0 45-20.186 45-45z" fill="#ffbea4"/><path d="m331 451v-75c0-41.353-33.633-75-75-75v150z" fill="#4895ff"/></g></svg>