<?xml version="1.0" encoding="iso-8859-1"?>
<!-- Generator: Adobe Illustrator 19.0.0, SVG Export Plug-In . SVG Version: 6.00 Build 0)  -->
<svg version="1.1" id="Capa_1" xmlns="http://www.w3.org/2000/svg" xmlns:xlink="http://www.w3.org/1999/xlink" x="0px" y="0px"
	 viewBox="0 0 464 464" style="enable-background:new 0 0 464 464;" xml:space="preserve">
<path style="fill:#B28757;" d="M192,8L32,168v68h400v-68L192,8z"/>
<path style="fill:#F6F6E7;" d="M432,168H32L192,8L432,168z"/>
<path style="fill:#B28757;" d="M32,384h400v72H32V384z"/>
<path style="fill:#9BB93C;" d="M400.488,353.28c5.125-0.863,10.315-1.291,15.512-1.28c26.512,0,48,10.744,48,24s-21.488,24-48,24
	c-14.117,0.585-28.076-3.164-40-10.744c-11.924,7.58-25.883,11.329-40,10.744c-12.492,0.318-24.866-2.487-36-8.16
	c-11.134,5.673-23.508,8.478-36,8.16c-8.11,0.062-16.189-1.015-24-3.2c-4.177-1.175-8.203-2.828-12-4.928
	c-11.137,5.662-23.511,8.455-36,8.128c-10.976,0.179-21.871-1.913-32-6.144c-1.408-0.629-2.741-1.301-4-2.016
	c-11.134,5.673-23.508,8.478-36,8.16c-12.492,0.318-24.866-2.487-36-8.16c-11.134,5.673-23.508,8.478-36,8.16
	c-26.512,0-48-10.744-48-24s21.488-24,48-24c5.198-0.008,10.387,0.423,15.512,1.288L64,312h337.496L400.488,353.28z"/>
<g>
	<path style="fill:#492E1B;" d="M66.349,202.34l15.998-15.998l11.314,11.314l-15.998,15.998L66.349,202.34z"/>
	<path style="fill:#492E1B;" d="M152,192h16v16h-16V192z"/>
	<path style="fill:#492E1B;" d="M250.345,202.344l15.998-15.998l11.314,11.314l-15.998,15.998L250.345,202.344z"/>
	<path style="fill:#492E1B;" d="M338.347,197.658l11.314-11.314l15.998,15.998l-11.314,11.314L338.347,197.658z"/>
	<path style="fill:#492E1B;" d="M130.348,125.657l11.314-11.314l15.998,15.998l-11.314,11.314L130.348,125.657z"/>
	<path style="fill:#492E1B;" d="M208,128h16v16h-16V128z"/>
	<path style="fill:#492E1B;" d="M258.346,130.335l15.998-15.998l11.314,11.314l-15.998,15.998L258.346,130.335z"/>
	<path style="fill:#492E1B;" d="M154.347,85.658l11.314-11.314l15.998,15.998l-11.314,11.314L154.347,85.658z"/>
	<path style="fill:#492E1B;" d="M212.423,88.846l16-8l7.155,14.311l-16,8L212.423,88.846z"/>
	<path style="fill:#492E1B;" d="M184,48h16v16h-16V48z"/>
	<path style="fill:#492E1B;" d="M312,128h16v16h-16V128z"/>
	<path style="fill:#492E1B;" d="M64,416h16v16H64V416z"/>
	<path style="fill:#492E1B;" d="M146.343,421.656l11.314-11.314l15.998,15.998l-11.314,11.314L146.343,421.656z"/>
	<path style="fill:#492E1B;" d="M216,416h16v16h-16V416z"/>
	<path style="fill:#492E1B;" d="M282.35,426.341l15.998-15.998l11.314,11.314l-15.998,15.998L282.35,426.341z"/>
	<path style="fill:#492E1B;" d="M360,416h16v16h-16V416z"/>
</g>
<path style="fill:#EF5822;" d="M424,284c0-15.464-12.536-28-28-28H68c-15.464,0-28,12.536-28,28s12.536,28,28,28H40
	c0,26.51,21.49,48,48,48s48-21.49,48-48c0,26.51,21.49,48,48,48s48-21.49,48-48c0,26.51,21.49,48,48,48s48-21.49,48-48
	c0,26.51,21.49,48,48,48s48-21.49,48-48h-28C411.464,312,424,299.464,424,284z"/>
<path style="fill:#F5C29A;" d="M68,256h328c15.464,0,28,12.536,28,28l0,0c0,15.464-12.536,28-28,28H68c-15.464,0-28-12.536-28-28
	l0,0C40,268.536,52.536,256,68,256z"/>
<path style="fill:#FFBF41;" d="M0,232l232,48l232-48H0z"/>
<g>
</g>
<g>
</g>
<g>
</g>
<g>
</g>
<g>
</g>
<g>
</g>
<g>
</g>
<g>
</g>
<g>
</g>
<g>
</g>
<g>
</g>
<g>
</g>
<g>
</g>
<g>
</g>
<g>
</g>
</svg>
