<svg id="Capa_1" enable-background="new 0 0 512 512" height="512" viewBox="0 0 512 512" width="512" xmlns="http://www.w3.org/2000/svg"><g><path d="m437.02 74.98c-48.353-48.351-112.64-74.98-181.02-74.98l-22.5 15 22.5 15c124.617 0 226 101.383 226 226s-101.383 226-226 226l-15 15 15 15c68.38 0 132.667-26.629 181.02-74.98 48.351-48.353 74.98-112.64 74.98-181.02s-26.629-132.667-74.98-181.02z" fill="#ffeaa6"/><path d="m30 256c0-124.617 101.383-226 226-226v-30c-68.38 0-132.667 26.629-181.02 74.98-48.351 48.353-74.98 112.64-74.98 181.02s26.629 132.667 74.98 181.02c48.353 48.351 112.64 74.98 181.02 74.98v-30c-124.617 0-226-101.383-226-226z" fill="#fff7e0"/><path d="m120.378 38.78c-16.261 10.196-31.491 22.294-45.397 36.2s-26.004 29.136-36.2 45.397l54.557 54.557 81.597-81.597z" fill="#ffeaa6"/><path d="m38.78 391.622c10.196 16.261 22.294 31.491 36.2 45.397s29.136 26.004 45.397 36.2l54.557-54.557-81.597-81.597z" fill="#ffeaa6"/><path d="m391.622 473.22c16.261-10.196 31.491-22.294 45.397-36.2s26.004-29.136 36.2-45.397l-54.557-54.557-81.597 81.597z" fill="#ffd959"/><path d="m473.22 120.378c-10.196-16.261-22.294-31.491-36.2-45.397s-29.136-26.004-45.397-36.2l-54.557 54.557 81.597 81.597z" fill="#ffd959"/><path d="m256 165-37.5-52.5s37.5-52.5 37.5-52.5c33.121 0 64.315 8.227 91.672 22.731l10.041 71.556 71.556 10.041c14.504 27.357 22.731 58.551 22.731 91.672s-8.227 64.315-22.731 91.672l-71.556 10.041-10.041 71.556c-27.357 14.504-58.552 22.731-91.672 22.731 0 0-52.5-52.5-52.5-52.5l52.5-52.5c13.993 0 27.244-3.166 39.088-8.809l46.619 3.516-3.516-46.619c5.643-11.844 8.809-25.095 8.809-39.088s-3.166-27.244-8.809-39.088l3.516-46.619-46.619 3.516c-11.844-5.643-25.095-8.809-39.088-8.809z" fill="#ff5253"/><path d="m256 165v-105c-33.121 0-64.315 8.227-91.672 22.731l-10.041 71.556-71.556 10.041c-14.504 27.357-22.731 58.551-22.731 91.672s8.227 64.315 22.731 91.672l71.556 10.041 10.041 71.556c27.357 14.504 58.551 22.731 91.672 22.731v-105c-13.993 0-27.244-3.166-39.088-8.809l-46.619 3.516 3.516-46.619c-5.643-11.844-8.809-25.095-8.809-39.088s3.166-27.244 8.809-39.088l-3.516-46.619 46.619 3.516c11.844-5.643 25.095-8.809 39.088-8.809z" fill="#ff7b6b"/><path d="m216.912 173.809-52.584-91.078c-34.696 18.395-63.202 46.901-81.597 81.597l91.078 52.584c8.981-18.851 24.252-34.122 43.103-43.103z" fill="#fff7e0"/><path d="m347.672 82.731-52.584 91.078c18.851 8.981 34.122 24.252 43.103 43.103l91.078-52.584c-18.395-34.696-46.901-63.202-81.597-81.597z" fill="#ffeaa6"/><path d="m295.088 338.191 52.584 91.078c34.696-18.395 63.202-46.901 81.597-81.597l-91.078-52.584c-8.981 18.851-24.252 34.122-43.103 43.103z" fill="#ffeaa6"/><path d="m173.809 295.088-91.078 52.584c18.395 34.696 46.901 63.202 81.597 81.597l52.584-91.078c-18.851-8.981-34.122-24.252-43.103-43.103z" fill="#fff7e0"/></g></svg>